<mxfile host="app.diagrams.net" modified="2023-11-19T17:12:25.033Z" agent="Mozilla/5.0 (Windows NT 10.0; Win64; x64) AppleWebKit/537.36 (KHTML, like Gecko) Chrome/119.0.0.0 Safari/537.36" etag="oJ3e6M3bT36UNxVE_fD5" version="22.1.3" type="device">
  <diagram id="C5RBs43oDa-KdzZeNtuy" name="Page-1">
    <mxGraphModel dx="875" dy="452" grid="1" gridSize="10" guides="1" tooltips="1" connect="1" arrows="1" fold="1" page="1" pageScale="1" pageWidth="827" pageHeight="1169" math="0" shadow="0">
      <root>
        <mxCell id="WIyWlLk6GJQsqaUBKTNV-0" />
        <mxCell id="WIyWlLk6GJQsqaUBKTNV-1" parent="WIyWlLk6GJQsqaUBKTNV-0" />
        <mxCell id="NS3GGH879DcdPZaDlkWN-5" value="" style="edgeStyle=orthogonalEdgeStyle;rounded=0;orthogonalLoop=1;jettySize=auto;html=1;" edge="1" parent="WIyWlLk6GJQsqaUBKTNV-1" source="WIyWlLk6GJQsqaUBKTNV-3" target="NS3GGH879DcdPZaDlkWN-4">
          <mxGeometry relative="1" as="geometry" />
        </mxCell>
        <mxCell id="WIyWlLk6GJQsqaUBKTNV-3" value="Start" style="rounded=1;whiteSpace=wrap;html=1;fontSize=12;glass=0;strokeWidth=1;shadow=0;" parent="WIyWlLk6GJQsqaUBKTNV-1" vertex="1">
          <mxGeometry x="300" y="40" width="120" height="40" as="geometry" />
        </mxCell>
        <mxCell id="NS3GGH879DcdPZaDlkWN-7" value="" style="edgeStyle=orthogonalEdgeStyle;rounded=0;orthogonalLoop=1;jettySize=auto;html=1;" edge="1" parent="WIyWlLk6GJQsqaUBKTNV-1" source="NS3GGH879DcdPZaDlkWN-4" target="NS3GGH879DcdPZaDlkWN-6">
          <mxGeometry relative="1" as="geometry" />
        </mxCell>
        <mxCell id="NS3GGH879DcdPZaDlkWN-4" value="Generate a word" style="rounded=1;whiteSpace=wrap;html=1;fontSize=12;glass=0;strokeWidth=1;shadow=0;" vertex="1" parent="WIyWlLk6GJQsqaUBKTNV-1">
          <mxGeometry x="300" y="120" width="120" height="40" as="geometry" />
        </mxCell>
        <mxCell id="NS3GGH879DcdPZaDlkWN-9" value="" style="edgeStyle=orthogonalEdgeStyle;rounded=0;orthogonalLoop=1;jettySize=auto;html=1;" edge="1" parent="WIyWlLk6GJQsqaUBKTNV-1" source="NS3GGH879DcdPZaDlkWN-6">
          <mxGeometry relative="1" as="geometry">
            <mxPoint x="360" y="280" as="targetPoint" />
          </mxGeometry>
        </mxCell>
        <mxCell id="NS3GGH879DcdPZaDlkWN-13" value="" style="edgeStyle=orthogonalEdgeStyle;rounded=0;orthogonalLoop=1;jettySize=auto;html=1;" edge="1" parent="WIyWlLk6GJQsqaUBKTNV-1" source="NS3GGH879DcdPZaDlkWN-6" target="NS3GGH879DcdPZaDlkWN-12">
          <mxGeometry relative="1" as="geometry" />
        </mxCell>
        <mxCell id="NS3GGH879DcdPZaDlkWN-6" value="Show the number of blank spaces" style="rounded=1;whiteSpace=wrap;html=1;fontSize=12;glass=0;strokeWidth=1;shadow=0;" vertex="1" parent="WIyWlLk6GJQsqaUBKTNV-1">
          <mxGeometry x="300" y="200" width="120" height="40" as="geometry" />
        </mxCell>
        <mxCell id="NS3GGH879DcdPZaDlkWN-15" value="" style="edgeStyle=orthogonalEdgeStyle;rounded=0;orthogonalLoop=1;jettySize=auto;html=1;" edge="1" parent="WIyWlLk6GJQsqaUBKTNV-1" source="NS3GGH879DcdPZaDlkWN-12" target="NS3GGH879DcdPZaDlkWN-14">
          <mxGeometry relative="1" as="geometry" />
        </mxCell>
        <mxCell id="NS3GGH879DcdPZaDlkWN-12" value="Get the user to input a letter" style="whiteSpace=wrap;html=1;rounded=1;glass=0;strokeWidth=1;shadow=0;" vertex="1" parent="WIyWlLk6GJQsqaUBKTNV-1">
          <mxGeometry x="300" y="280" width="120" height="40" as="geometry" />
        </mxCell>
        <mxCell id="NS3GGH879DcdPZaDlkWN-17" value="No" style="edgeStyle=orthogonalEdgeStyle;rounded=0;orthogonalLoop=1;jettySize=auto;html=1;" edge="1" parent="WIyWlLk6GJQsqaUBKTNV-1" source="NS3GGH879DcdPZaDlkWN-14" target="NS3GGH879DcdPZaDlkWN-16">
          <mxGeometry relative="1" as="geometry">
            <Array as="points">
              <mxPoint x="520" y="400" />
            </Array>
          </mxGeometry>
        </mxCell>
        <mxCell id="NS3GGH879DcdPZaDlkWN-19" value="Yes" style="edgeStyle=orthogonalEdgeStyle;rounded=0;orthogonalLoop=1;jettySize=auto;html=1;" edge="1" parent="WIyWlLk6GJQsqaUBKTNV-1" source="NS3GGH879DcdPZaDlkWN-14" target="NS3GGH879DcdPZaDlkWN-18">
          <mxGeometry relative="1" as="geometry">
            <Array as="points">
              <mxPoint x="200" y="400" />
            </Array>
          </mxGeometry>
        </mxCell>
        <mxCell id="NS3GGH879DcdPZaDlkWN-14" value="Letter exits in the word?" style="rhombus;whiteSpace=wrap;html=1;rounded=1;glass=0;strokeWidth=1;shadow=0;" vertex="1" parent="WIyWlLk6GJQsqaUBKTNV-1">
          <mxGeometry x="300" y="360" width="120" height="80" as="geometry" />
        </mxCell>
        <mxCell id="NS3GGH879DcdPZaDlkWN-21" value="" style="edgeStyle=orthogonalEdgeStyle;rounded=0;orthogonalLoop=1;jettySize=auto;html=1;" edge="1" parent="WIyWlLk6GJQsqaUBKTNV-1" source="NS3GGH879DcdPZaDlkWN-16" target="NS3GGH879DcdPZaDlkWN-20">
          <mxGeometry relative="1" as="geometry" />
        </mxCell>
        <mxCell id="NS3GGH879DcdPZaDlkWN-16" value="One piece of the hangman figure appears" style="whiteSpace=wrap;html=1;rounded=1;glass=0;strokeWidth=1;shadow=0;" vertex="1" parent="WIyWlLk6GJQsqaUBKTNV-1">
          <mxGeometry x="460" y="440" width="120" height="40" as="geometry" />
        </mxCell>
        <mxCell id="NS3GGH879DcdPZaDlkWN-28" value="" style="edgeStyle=orthogonalEdgeStyle;rounded=0;orthogonalLoop=1;jettySize=auto;html=1;" edge="1" parent="WIyWlLk6GJQsqaUBKTNV-1" source="NS3GGH879DcdPZaDlkWN-18" target="NS3GGH879DcdPZaDlkWN-27">
          <mxGeometry relative="1" as="geometry" />
        </mxCell>
        <mxCell id="NS3GGH879DcdPZaDlkWN-18" value="The position of the letter is revealed" style="whiteSpace=wrap;html=1;rounded=1;glass=0;strokeWidth=1;shadow=0;" vertex="1" parent="WIyWlLk6GJQsqaUBKTNV-1">
          <mxGeometry x="140" y="440" width="120" height="40" as="geometry" />
        </mxCell>
        <mxCell id="NS3GGH879DcdPZaDlkWN-24" value="Yes" style="edgeStyle=orthogonalEdgeStyle;rounded=0;orthogonalLoop=1;jettySize=auto;html=1;" edge="1" parent="WIyWlLk6GJQsqaUBKTNV-1" source="NS3GGH879DcdPZaDlkWN-20" target="NS3GGH879DcdPZaDlkWN-23">
          <mxGeometry relative="1" as="geometry" />
        </mxCell>
        <mxCell id="NS3GGH879DcdPZaDlkWN-26" value="No" style="edgeStyle=orthogonalEdgeStyle;rounded=0;orthogonalLoop=1;jettySize=auto;html=1;entryX=1;entryY=0.5;entryDx=0;entryDy=0;" edge="1" parent="WIyWlLk6GJQsqaUBKTNV-1" source="NS3GGH879DcdPZaDlkWN-20" target="NS3GGH879DcdPZaDlkWN-6">
          <mxGeometry relative="1" as="geometry">
            <Array as="points">
              <mxPoint x="640" y="550" />
              <mxPoint x="640" y="220" />
            </Array>
          </mxGeometry>
        </mxCell>
        <mxCell id="NS3GGH879DcdPZaDlkWN-20" value="Have all pieces appeared?" style="rhombus;whiteSpace=wrap;html=1;rounded=1;glass=0;strokeWidth=1;shadow=0;" vertex="1" parent="WIyWlLk6GJQsqaUBKTNV-1">
          <mxGeometry x="460" y="510" width="120" height="80" as="geometry" />
        </mxCell>
        <mxCell id="NS3GGH879DcdPZaDlkWN-34" style="edgeStyle=orthogonalEdgeStyle;rounded=0;orthogonalLoop=1;jettySize=auto;html=1;entryX=0.5;entryY=0;entryDx=0;entryDy=0;" edge="1" parent="WIyWlLk6GJQsqaUBKTNV-1" source="NS3GGH879DcdPZaDlkWN-23" target="NS3GGH879DcdPZaDlkWN-32">
          <mxGeometry relative="1" as="geometry" />
        </mxCell>
        <mxCell id="NS3GGH879DcdPZaDlkWN-23" value="You Lose" style="whiteSpace=wrap;html=1;rounded=1;glass=0;strokeWidth=1;shadow=0;" vertex="1" parent="WIyWlLk6GJQsqaUBKTNV-1">
          <mxGeometry x="460" y="640" width="120" height="40" as="geometry" />
        </mxCell>
        <mxCell id="NS3GGH879DcdPZaDlkWN-29" value="No" style="edgeStyle=orthogonalEdgeStyle;rounded=0;orthogonalLoop=1;jettySize=auto;html=1;entryX=0;entryY=0.5;entryDx=0;entryDy=0;" edge="1" parent="WIyWlLk6GJQsqaUBKTNV-1" source="NS3GGH879DcdPZaDlkWN-27" target="NS3GGH879DcdPZaDlkWN-6">
          <mxGeometry relative="1" as="geometry">
            <Array as="points">
              <mxPoint x="80" y="550" />
              <mxPoint x="80" y="220" />
            </Array>
          </mxGeometry>
        </mxCell>
        <mxCell id="NS3GGH879DcdPZaDlkWN-31" value="Yes" style="edgeStyle=orthogonalEdgeStyle;rounded=0;orthogonalLoop=1;jettySize=auto;html=1;" edge="1" parent="WIyWlLk6GJQsqaUBKTNV-1" source="NS3GGH879DcdPZaDlkWN-27" target="NS3GGH879DcdPZaDlkWN-30">
          <mxGeometry relative="1" as="geometry" />
        </mxCell>
        <mxCell id="NS3GGH879DcdPZaDlkWN-27" value="Have all letters been revealed?" style="rhombus;whiteSpace=wrap;html=1;rounded=1;glass=0;strokeWidth=1;shadow=0;" vertex="1" parent="WIyWlLk6GJQsqaUBKTNV-1">
          <mxGeometry x="140" y="510" width="120" height="80" as="geometry" />
        </mxCell>
        <mxCell id="NS3GGH879DcdPZaDlkWN-33" value="" style="edgeStyle=orthogonalEdgeStyle;rounded=0;orthogonalLoop=1;jettySize=auto;html=1;" edge="1" parent="WIyWlLk6GJQsqaUBKTNV-1" source="NS3GGH879DcdPZaDlkWN-30" target="NS3GGH879DcdPZaDlkWN-32">
          <mxGeometry relative="1" as="geometry" />
        </mxCell>
        <mxCell id="NS3GGH879DcdPZaDlkWN-30" value="You Win!" style="whiteSpace=wrap;html=1;rounded=1;glass=0;strokeWidth=1;shadow=0;" vertex="1" parent="WIyWlLk6GJQsqaUBKTNV-1">
          <mxGeometry x="140" y="640" width="120" height="40" as="geometry" />
        </mxCell>
        <mxCell id="NS3GGH879DcdPZaDlkWN-32" value="Game Over" style="whiteSpace=wrap;html=1;rounded=1;glass=0;strokeWidth=1;shadow=0;" vertex="1" parent="WIyWlLk6GJQsqaUBKTNV-1">
          <mxGeometry x="300" y="720" width="120" height="40" as="geometry" />
        </mxCell>
      </root>
    </mxGraphModel>
  </diagram>
</mxfile>
